<svg width="157" height="39" viewBox="0 0 157 39" fill="none" xmlns="http://www.w3.org/2000/svg">
<path d="M105.655 38.8254C105.481 38.8254 105.364 38.7089 105.364 38.5343C105.364 38.3597 105.481 38.2433 105.655 38.2433C113.156 38.2433 119.494 31.8985 119.494 24.4477C119.494 16.9388 113.273 10.7686 105.655 10.7686C98.0959 10.7686 91.9322 16.8806 91.9322 24.4477C91.9322 24.6224 91.8159 24.7388 91.6415 24.7388C91.467 24.7388 91.3507 24.6224 91.3507 24.4477C91.3507 16.5895 97.8052 10.1866 105.655 10.1866C113.621 10.1866 120.076 16.5895 120.076 24.4477C120.076 32.2477 113.505 38.8254 105.655 38.8254Z" fill="#E9C46A"/>
<path d="M77.4534 38.8254C77.2789 38.8254 77.1626 38.7089 77.1626 38.5343C77.1626 38.3597 77.2789 38.2433 77.4534 38.2433C84.9545 38.2433 91.2926 31.8985 91.2926 24.4477C91.2926 16.9388 85.0708 10.7686 77.4534 10.7686C77.2789 10.7686 77.1626 10.6522 77.1626 10.4776C77.1626 10.303 77.2789 10.1866 77.4534 10.1866C85.4197 10.1866 91.8741 16.5895 91.8741 24.4477C91.9323 32.2477 85.3034 38.8254 77.4534 38.8254Z" fill="#F23D5E"/>
<path d="M63.5559 24.9716C63.3815 24.9716 63.2652 24.8552 63.2652 24.6806C63.2652 16.706 69.6615 10.2448 77.5115 10.2448C77.6859 10.2448 77.8022 10.3612 77.8022 10.5358C77.8022 10.7105 77.6859 10.8269 77.5115 10.8269C70.0104 10.8269 63.8466 17.0552 63.8466 24.6806C63.8466 24.797 63.7304 24.9716 63.5559 24.9716Z" fill="#F23D5E"/>
<path d="M82.1633 31.4328V22.9925L78.0348 29.9194H76.5811L72.4526 23.1672V31.4328H69.4289V17.4045H72.1037L77.337 26.1358L82.5122 17.4045H85.187L85.2452 31.4328H82.1633Z" fill="#3B713D"/>
<path d="M108.33 31.4328L105.597 27.5328H105.423H102.573V31.4328H99.317V17.4045H105.364C106.586 17.4045 107.69 17.6373 108.621 18.0448C109.551 18.4522 110.249 19.0343 110.714 19.791C111.179 20.5478 111.47 21.4791 111.47 22.5269C111.47 23.5746 111.237 24.4478 110.714 25.2045C110.191 25.9612 109.493 26.5433 108.563 26.9507L111.703 31.491H108.33V31.4328ZM107.458 20.7224C106.934 20.3149 106.237 20.0821 105.248 20.0821H102.631V24.9716H105.248C106.237 24.9716 106.993 24.7388 107.458 24.3313C107.981 23.9239 108.214 23.2836 108.214 22.5269C108.272 21.7119 107.981 21.1299 107.458 20.7224Z" fill="#3B713D"/>
<path d="M140.951 17.4045L134.904 31.4328H131.706L125.658 17.4045H129.147L133.392 27.4164L137.695 17.4045H140.951Z" fill="#3B713D"/>
<path d="M3.54704 30.7925C2.44222 30.1522 1.57 29.3373 0.988518 28.2895C0.290741 27.2418 0 26.0194 0 24.6806C0 23.3418 0.290741 22.1776 0.93037 21.0716C1.57 20.0239 2.44222 19.1507 3.48889 18.5686C4.5937 17.9283 5.81481 17.6373 7.15222 17.6373C8.48963 17.6373 9.71074 17.9283 10.8156 18.5686C11.9204 19.1507 12.7926 20.0239 13.3741 21.0716C14.0137 22.1194 14.3044 23.3418 14.3044 24.6806C14.3044 26.0194 14.0137 27.2418 13.3741 28.2895C12.7344 29.3373 11.8622 30.2104 10.8156 30.7925C9.71074 31.3746 8.48963 31.7239 7.15222 31.7239C5.81481 31.7239 4.5937 31.4328 3.54704 30.7925ZM10.3504 30.0358C11.2807 29.5119 12.0367 28.7552 12.56 27.8239C13.0833 26.8925 13.3741 25.8448 13.3741 24.6806C13.3741 23.5164 13.0833 22.4686 12.56 21.5373C12.0367 20.606 11.2807 19.8492 10.3504 19.3254C9.42 18.8015 8.37333 18.5104 7.21037 18.5104C6.04741 18.5104 5.00074 18.8015 4.07037 19.3254C3.14 19.8492 2.38407 20.606 1.86074 21.5373C1.33741 22.4686 1.04667 23.5164 1.04667 24.6806C1.04667 25.8448 1.33741 26.8925 1.86074 27.8239C2.38407 28.7552 3.14 29.5119 4.07037 30.0358C5.00074 30.5597 6.04741 30.8507 7.21037 30.8507C8.37333 30.7925 9.42 30.5597 10.3504 30.0358Z" fill="#3B713D"/>
<path d="M27.4459 19.0343C28.4345 19.8492 28.8997 21.0134 28.8997 22.4686C28.8997 23.9239 28.4345 25.0298 27.4459 25.903C26.4574 26.7179 25.12 27.1254 23.3756 27.1254H19.4215V31.6657H18.433V17.7537H23.3756C25.0619 17.7537 26.4574 18.1612 27.4459 19.0343ZM26.7482 25.2045C27.5041 24.5642 27.9111 23.6328 27.9111 22.4104C27.9111 21.1881 27.5041 20.2567 26.7482 19.6164C25.9922 18.9761 24.8293 18.6269 23.3756 18.6269H19.4215V26.194H23.3756C24.8293 26.194 25.9341 25.8448 26.7482 25.2045Z" fill="#3B713D"/>
<path d="M42.39 30.7343V31.6657H32.7955V17.7537H42.0411V18.6851H33.8422V24.1567H41.227V25.0298H33.8422V30.7343H42.39Z" fill="#3B713D"/>
<path d="M57.7993 17.7537V31.6075H56.9852L47.5652 19.6164V31.6657H46.5185V17.7537H47.3907L56.8107 29.803V17.7537H57.7993Z" fill="#3B713D"/>
<path d="M147.406 11.409C147.347 11.409 147.289 11.409 147.231 11.3507C147.115 11.2925 147.057 11.1179 147.115 10.9433C147.347 10.5358 147.522 10.0701 147.638 9.54627C148.103 7.1597 146.417 4.77313 144.033 4.30746C143.859 4.24925 143.742 4.13284 143.8 3.95821C143.859 3.78358 143.975 3.72537 144.149 3.72537C146.824 4.24925 148.685 6.92687 148.22 9.60448C148.103 10.1866 147.929 10.7104 147.638 11.1761C147.638 11.3507 147.522 11.409 147.406 11.409Z" fill="#3B713D"/>
<path d="M147.115 6.22837C146.998 6.22837 146.824 6.11195 146.824 5.99554C146.824 5.82091 146.824 5.64628 146.824 5.47165C146.882 5.06419 147.173 4.65673 147.522 4.42389C147.871 4.19106 148.336 4.07464 148.743 4.19106C148.917 4.24927 149.034 4.36568 148.976 4.54031C148.917 4.71494 148.801 4.83136 148.627 4.77315C148.336 4.71494 148.103 4.77315 147.871 4.94777C147.638 5.1224 147.464 5.35524 147.406 5.58807C147.406 5.70449 147.406 5.82091 147.406 5.93733C147.406 6.05374 147.289 6.22837 147.115 6.22837Z" fill="#3B713D"/>
<path d="M141.358 2.27014C141.358 2.27014 141.591 2.91044 142.172 3.43432C142.288 3.55074 142.405 3.60895 142.463 3.66716C142.928 3.9582 143.219 3.60895 142.87 3.20148C142.812 3.08507 142.696 3.02686 142.579 2.91044C142.056 2.44477 141.358 2.27014 141.358 2.27014Z" fill="#3B713D"/>
<path d="M146.475 2.09552C146.475 2.09552 146.243 2.79403 146.359 3.49253C146.359 3.60895 146.417 3.78358 146.475 3.84179C146.65 4.36567 147.115 4.30746 147.115 3.72537C147.115 3.60895 147.115 3.49253 147.057 3.31791C146.94 2.6194 146.475 2.09552 146.475 2.09552Z" fill="#3B713D"/>
<path d="M143.858 1.22238C143.858 1.22238 143.568 1.86268 143.626 2.6194C143.626 2.73581 143.684 2.91044 143.684 3.02686C143.858 3.55074 144.266 3.55074 144.324 2.96865C144.324 2.85223 144.324 2.73581 144.324 2.56119C144.266 1.80447 143.858 1.22238 143.858 1.22238Z" fill="#3B713D"/>
<path d="M150.255 6.40298C150.255 6.40298 149.557 6.46119 148.917 6.86866C148.801 6.92686 148.685 7.04328 148.627 7.10149C148.22 7.50895 148.452 7.85821 148.976 7.62537C149.092 7.56716 149.208 7.50895 149.324 7.45075C149.964 7.04328 150.255 6.40298 150.255 6.40298Z" fill="#3B713D"/>
<path d="M150.197 5.47165C150.197 5.47165 149.557 5.1806 148.801 5.29702C148.685 5.29702 148.51 5.35523 148.394 5.35523C147.871 5.52985 147.929 5.93732 148.452 5.99553C148.568 5.99553 148.685 5.99553 148.859 5.99553C149.673 5.87911 150.197 5.47165 150.197 5.47165Z" fill="#3B713D"/>
<path d="M144.324 5.93731C144.324 5.93731 145.021 5.8791 145.719 6.17014C145.836 6.22835 145.952 6.28656 146.068 6.34477C146.533 6.63581 146.359 7.04328 145.836 6.92686C145.719 6.92686 145.603 6.86865 145.487 6.81044C144.731 6.5194 144.324 5.93731 144.324 5.93731Z" fill="#3B713D"/>
<path d="M141.591 5.35524C141.591 5.35524 142.114 4.83136 142.87 4.65673C142.986 4.59853 143.161 4.59853 143.277 4.59853C143.859 4.54032 143.975 5.00599 143.451 5.23882C143.335 5.29703 143.219 5.35524 143.103 5.35524C142.289 5.58808 141.591 5.35524 141.591 5.35524Z" fill="#3B713D"/>
<path d="M151.011 3.7836C151.011 3.7836 150.604 4.24927 150.022 4.42389C149.906 4.4821 149.79 4.4821 149.731 4.4821C149.266 4.54031 149.15 4.19106 149.557 3.95822C149.615 3.90001 149.731 3.8418 149.848 3.8418C150.429 3.72539 151.011 3.7836 151.011 3.7836Z" fill="#3B713D"/>
<path d="M143.277 14.7851C143.044 14.7851 142.87 14.7851 142.637 14.7851C142.463 14.7851 142.347 14.6105 142.347 14.494C142.347 14.3194 142.521 14.203 142.637 14.203C143.859 14.3194 145.08 14.0866 146.184 13.5045C146.301 13.4463 146.475 13.5045 146.591 13.6209C146.65 13.7373 146.591 13.912 146.475 14.0284C145.487 14.494 144.382 14.7851 143.277 14.7851Z" fill="#3B713D"/>
<path d="M144.149 11.5836C144.091 11.5836 144.033 11.5836 143.975 11.5254C143.8 11.3507 143.626 11.1761 143.51 10.9433C142.986 9.89551 143.393 8.4985 144.498 7.97462C144.614 7.91641 144.789 7.97462 144.905 8.09104C144.963 8.20745 144.905 8.38208 144.789 8.4985C143.975 8.90596 143.684 9.89551 144.091 10.7104C144.149 10.8851 144.266 11.0015 144.382 11.1179C144.498 11.2343 144.498 11.4089 144.382 11.5254C144.266 11.5836 144.207 11.5836 144.149 11.5836Z" fill="#3B713D"/>
<path d="M145.952 8.61493C145.952 8.61493 145.894 9.31344 145.487 9.95373C145.428 10.0702 145.312 10.1866 145.254 10.2448C144.847 10.6522 144.498 10.4194 144.731 9.89553C144.789 9.77911 144.847 9.66269 144.905 9.54627C145.312 8.90597 145.952 8.61493 145.952 8.61493Z" fill="#3B713D"/>
<path d="M150.08 8.5567C150.08 8.5567 150.313 9.25521 150.139 10.0119C150.08 10.1283 150.08 10.303 150.022 10.3612C149.79 10.8851 149.383 10.7686 149.383 10.2448C149.383 10.1283 149.383 10.0119 149.441 9.8373C149.615 9.08058 150.08 8.5567 150.08 8.5567Z" fill="#3B713D"/>
<path d="M151.418 7.56717C151.418 7.56717 151.767 8.20747 151.709 8.96418C151.709 9.0806 151.709 9.25523 151.65 9.37165C151.534 9.89553 151.069 9.89553 151.011 9.37165C151.011 9.25523 151.011 9.13881 151.011 8.96418C151.011 8.20747 151.418 7.56717 151.418 7.56717Z" fill="#3B713D"/>
<path d="M137.637 9.89554C137.637 9.89554 138.218 10.303 139.032 10.303C139.149 10.303 139.323 10.303 139.439 10.303C140.021 10.2448 140.021 9.77912 139.439 9.6627C139.323 9.6627 139.207 9.60449 139.032 9.60449C138.276 9.60449 137.637 9.89554 137.637 9.89554Z" fill="#3B713D"/>
<path d="M141.765 12.9224C141.765 12.9224 142.347 13.3299 143.161 13.3299C143.277 13.3299 143.451 13.3299 143.568 13.3299C144.149 13.2716 144.149 12.806 143.568 12.6896C143.451 12.6896 143.335 12.6313 143.161 12.6313C142.405 12.6313 141.765 12.9224 141.765 12.9224Z" fill="#3B713D"/>
<path d="M139.904 11.409C139.904 11.409 140.486 11.8164 141.3 11.8164C141.416 11.8164 141.591 11.8164 141.707 11.8164C142.289 11.7582 142.289 11.2925 141.707 11.1761C141.591 11.1761 141.474 11.1179 141.3 11.1179C140.544 11.1179 139.904 11.409 139.904 11.409Z" fill="#3B713D"/>
<path d="M139.497 7.1015C139.497 7.1015 139.672 7.80001 140.195 8.3821C140.311 8.49852 140.37 8.55673 140.486 8.67314C140.951 9.0224 141.242 8.73135 140.951 8.26568C140.893 8.14926 140.835 8.09105 140.718 7.97464C140.137 7.33434 139.497 7.1015 139.497 7.1015Z" fill="#3B713D"/>
<path d="M145.952 11.1179C145.952 11.1179 146.126 11.8164 146.65 12.3985C146.766 12.5149 146.824 12.5731 146.94 12.6896C147.406 13.0388 147.696 12.7478 147.406 12.2821C147.347 12.1657 147.289 12.1075 147.173 11.9911C146.591 11.3508 145.952 11.1179 145.952 11.1179Z" fill="#3B713D"/>
<path d="M137.753 7.2179C137.753 7.2179 137.927 7.9164 138.451 8.49849C138.567 8.61491 138.625 8.67312 138.741 8.78954C139.207 9.13879 139.497 8.84775 139.207 8.38207C139.149 8.26566 139.09 8.20745 138.974 8.09103C138.393 7.45073 137.753 7.2179 137.753 7.2179Z" fill="#3B713D"/>
<path d="M139.672 14.4358C139.672 14.4358 140.253 14.8433 141.067 14.8433C141.184 14.8433 141.358 14.8433 141.474 14.8433C142.056 14.7851 142.056 14.3194 141.474 14.203C141.358 14.203 141.242 14.1448 141.067 14.1448C140.311 14.0866 139.672 14.4358 139.672 14.4358Z" fill="#3B713D"/>
<path d="M141.649 6.98508C141.649 6.98508 142.23 7.39254 142.579 8.09105C142.637 8.20747 142.696 8.32388 142.754 8.4403C142.928 8.96418 142.521 9.19702 142.172 8.73135C142.114 8.61493 142.056 8.49851 141.94 8.38209C141.649 7.68358 141.649 6.98508 141.649 6.98508Z" fill="#3B713D"/>
<path d="M142.986 5.99551C142.986 5.99551 143.568 6.40298 143.917 7.10148C143.975 7.2179 144.033 7.33432 144.091 7.45074C144.266 7.97462 143.859 8.20745 143.51 7.74178C143.451 7.62536 143.393 7.50895 143.277 7.39253C142.986 6.69402 142.986 5.99551 142.986 5.99551Z" fill="#3B713D"/>
<path d="M139.672 4.42389C139.672 4.42389 140.253 4.83135 140.602 5.52986C140.66 5.64628 140.718 5.7627 140.777 5.87911C140.951 6.40299 140.544 6.63583 140.195 6.17016C140.137 6.05374 140.079 5.93732 139.963 5.8209C139.672 5.1224 139.672 4.42389 139.672 4.42389Z" fill="#3B713D"/>
<path d="M148.22 14.4358C148.161 14.4358 148.161 14.4358 148.103 14.4358C147.929 14.3776 147.871 14.203 147.929 14.0283C148.336 13.1552 148.859 12.3403 149.557 11.6418C151.243 9.89551 153.627 8.90595 156.128 8.96416C156.302 8.96416 156.418 9.08058 156.418 9.25521C156.418 9.42983 156.302 9.54625 156.128 9.54625C153.802 9.48804 151.592 10.3612 150.022 12.0492C149.383 12.6895 148.917 13.4463 148.51 14.2612C148.394 14.3776 148.336 14.4358 148.22 14.4358Z" fill="#3B713D"/>
<path d="M153.802 13.2134H153.744C152.464 12.9224 151.301 12.3403 150.371 11.409C150.255 11.2925 150.255 11.1179 150.371 11.0015C150.487 10.8851 150.662 10.8851 150.778 11.0015C151.65 11.8164 152.697 12.3985 153.86 12.6313C154.034 12.6896 154.093 12.806 154.093 12.9806C154.093 13.097 153.918 13.2134 153.802 13.2134Z" fill="#3B713D"/>
<path d="M153.104 10.0119C152.988 10.0119 152.871 9.95372 152.871 9.83731C152.813 9.72089 152.871 9.54626 152.988 9.42984C153.104 9.37163 153.22 9.25522 153.337 9.1388C153.86 8.61492 153.86 7.68357 153.278 7.15969C153.162 7.04328 153.162 6.86865 153.278 6.75223C153.395 6.63581 153.569 6.63581 153.686 6.75223C154.441 7.50895 154.5 8.78954 153.744 9.54626C153.569 9.72089 153.395 9.83731 153.22 9.95372C153.162 10.0119 153.104 10.0119 153.104 10.0119Z" fill="#3B713D"/>
<path d="M151.476 6.34476C151.36 6.34476 151.243 6.28655 151.243 6.17013C151.185 6.05371 151.243 5.87908 151.36 5.76267C151.476 5.70446 151.65 5.58804 151.708 5.47162C152.232 4.94774 152.232 4.0164 151.65 3.49252C151.534 3.3761 151.534 3.20147 151.65 3.08506C151.767 2.96864 151.941 2.96864 152.057 3.08506C152.813 3.84177 152.871 5.12237 152.116 5.87908C151.941 6.05371 151.767 6.17013 151.592 6.28655C151.534 6.34476 151.476 6.34476 151.476 6.34476Z" fill="#3B713D"/>
<path d="M152.232 6.98508C152.232 6.98508 152.116 7.62538 152.29 8.26567C152.348 8.38209 152.348 8.49851 152.406 8.61493C152.639 9.0806 152.988 8.96418 152.93 8.4403C152.93 8.32388 152.871 8.20747 152.871 8.09105C152.697 7.39254 152.232 6.98508 152.232 6.98508Z" fill="#3B713D"/>
<path d="M150.894 0.698486C150.894 0.698486 150.778 1.33878 150.953 1.97908C151.011 2.0955 151.011 2.21192 151.069 2.32834C151.301 2.79401 151.65 2.67759 151.592 2.15371C151.592 2.03729 151.534 1.92087 151.534 1.80446C151.36 1.10595 150.894 0.698486 150.894 0.698486Z" fill="#3B713D"/>
<path d="M148.452 1.68805C148.452 1.68805 148.103 2.21193 148.045 2.91044C148.045 3.02686 148.045 3.14327 148.045 3.25969C148.103 3.78357 148.51 3.78357 148.627 3.3179C148.627 3.20148 148.685 3.08506 148.685 2.96865C148.743 2.27014 148.452 1.68805 148.452 1.68805Z" fill="#3B713D"/>
<path d="M150.022 0.756714C150.022 0.756714 149.673 1.28059 149.615 1.9791C149.615 2.09552 149.615 2.21194 149.615 2.32836C149.673 2.85224 150.08 2.85224 150.197 2.38656C150.197 2.27015 150.255 2.15373 150.255 2.03731C150.313 1.3388 150.022 0.756714 150.022 0.756714Z" fill="#3B713D"/>
<path d="M147.464 0C147.464 0 147.115 0.52388 147.057 1.22239C147.057 1.33881 147.057 1.45522 147.057 1.57164C147.115 2.09552 147.522 2.09552 147.638 1.62985C147.638 1.51343 147.696 1.39701 147.696 1.2806C147.754 0.58209 147.464 0 147.464 0Z" fill="#3B713D"/>
<path d="M145.37 0.349243C145.37 0.349243 145.021 0.873124 144.963 1.57163C144.963 1.68805 144.963 1.80447 144.963 1.92088C145.021 2.44477 145.428 2.44477 145.545 1.97909C145.545 1.86268 145.603 1.74626 145.603 1.62984C145.661 0.931333 145.37 0.349243 145.37 0.349243Z" fill="#3B713D"/>
<path d="M151.418 14.0283C151.418 14.0283 150.894 13.6791 150.604 13.097C150.546 12.9806 150.487 12.8642 150.487 12.806C150.371 12.3403 150.72 12.1657 151.011 12.5731C151.069 12.6313 151.127 12.7478 151.185 12.8642C151.476 13.388 151.418 14.0283 151.418 14.0283Z" fill="#3B713D"/>
<path d="M157 10.8269C157 10.8269 156.419 11.0015 155.721 10.8269C155.604 10.7687 155.488 10.7687 155.372 10.7105C154.907 10.5358 155.023 10.1284 155.488 10.1866C155.604 10.1866 155.721 10.1866 155.837 10.2448C156.593 10.4194 157 10.8269 157 10.8269Z" fill="#3B713D"/>
<path d="M154.674 11.7C154.674 11.7 154.093 11.8746 153.395 11.7C153.279 11.6418 153.162 11.6418 153.046 11.5836C152.581 11.4089 152.697 11.0015 153.162 11.0597C153.279 11.0597 153.395 11.0597 153.511 11.1179C154.209 11.2925 154.674 11.7 154.674 11.7Z" fill="#3B713D"/>
<path d="M154.267 15.0179C154.267 15.0179 153.686 15.1925 152.988 15.0179C152.871 14.9597 152.755 14.9597 152.639 14.9015C152.174 14.7269 152.29 14.3194 152.755 14.3776C152.871 14.3776 152.988 14.3776 153.104 14.4358C153.86 14.5522 154.267 15.0179 154.267 15.0179Z" fill="#3B713D"/>
<path d="M156.36 13.6791C156.36 13.6791 155.779 13.8537 155.081 13.6791C154.965 13.6209 154.849 13.6209 154.732 13.5627C154.267 13.3881 154.383 12.9806 154.849 13.0388C154.965 13.0388 155.081 13.0388 155.197 13.097C155.895 13.2134 156.36 13.6791 156.36 13.6791Z" fill="#3B713D"/>
<path d="M156.302 6.69403C156.302 6.69403 155.721 6.86866 155.256 7.39254C155.197 7.50896 155.081 7.56716 155.023 7.68358C154.732 8.09105 155.023 8.38209 155.43 8.09105C155.488 8.03284 155.604 7.97463 155.663 7.85821C156.128 7.27612 156.302 6.69403 156.302 6.69403Z" fill="#3B713D"/>
<path d="M155.023 5.12241C155.023 5.12241 154.558 5.52987 154.267 6.17017C154.209 6.28659 154.209 6.403 154.151 6.51942C154.034 6.98509 154.383 7.15972 154.674 6.75226C154.732 6.63584 154.79 6.57763 154.848 6.46121C155.139 5.7045 155.023 5.12241 155.023 5.12241Z" fill="#3B713D"/>
<path d="M153.802 1.74628C153.802 1.74628 153.22 2.03732 152.871 2.5612C152.813 2.67762 152.755 2.79404 152.697 2.85225C152.523 3.31792 152.813 3.55075 153.162 3.14329C153.22 3.08508 153.279 2.96867 153.395 2.85225C153.744 2.38658 153.802 1.74628 153.802 1.74628Z" fill="#3B713D"/>
<path d="M147.987 24.9134C147.813 24.9134 147.696 24.797 147.696 24.6224V18.3358C147.696 17.1717 147.406 16.0075 146.882 14.9597L146.766 14.7851C145.603 12.5149 143.451 10.7687 140.951 10.0702C140.777 10.0119 140.718 9.89553 140.718 9.7209C140.777 9.54628 140.893 9.48807 141.067 9.48807C143.8 10.2448 146.01 12.0493 147.289 14.494L147.406 14.6687C147.987 15.7746 148.278 17.0552 148.278 18.2776V24.506C148.278 24.7388 148.161 24.9134 147.987 24.9134Z" fill="#3B713D"/>
<path d="M146.882 23.0507C146.708 23.0507 146.591 22.9343 146.591 22.7597V17.2881C146.591 17.1134 146.708 16.997 146.882 16.997C147.057 16.997 147.173 17.1134 147.173 17.2881V22.7597C147.173 22.8761 147.057 23.0507 146.882 23.0507Z" fill="#3B713D"/>
<path d="M146.882 17.5791C146.708 17.5791 146.591 17.4627 146.591 17.2881C146.591 17.0552 146.533 16.8224 146.359 16.5896C146.184 16.4149 145.952 16.2985 145.719 16.2985C145.603 16.2985 145.487 16.2985 145.429 16.3567C145.254 16.4149 145.138 16.2985 145.08 16.1821C145.021 16.0075 145.138 15.891 145.254 15.8328C145.429 15.7746 145.603 15.7746 145.777 15.7746C146.184 15.7746 146.533 15.9493 146.824 16.2403C147.115 16.5313 147.231 16.9388 147.231 17.3463C147.173 17.4627 147.057 17.5791 146.882 17.5791Z" fill="#3B713D"/>
<path d="M149.092 26.2522C148.917 26.2522 148.801 26.1358 148.801 25.9612V16.3567C148.801 16.1821 148.917 16.0657 149.092 16.0657C149.266 16.0657 149.383 16.1821 149.383 16.3567V25.9612C149.383 26.1358 149.208 26.2522 149.092 26.2522Z" fill="#3B713D"/>
<path d="M149.092 16.6478C148.917 16.6478 148.801 16.5313 148.801 16.3567C148.801 16.1239 148.859 15.891 148.917 15.7164C149.092 15.2507 149.499 14.8433 149.964 14.6105C150.429 14.3776 151.011 14.3776 151.476 14.5522C151.65 14.6105 151.708 14.7851 151.65 14.9015C151.592 15.0761 151.418 15.1343 151.301 15.0761C150.953 14.9597 150.546 14.9597 150.197 15.1343C149.848 15.309 149.615 15.5418 149.441 15.891C149.383 16.0075 149.383 16.1821 149.383 16.3567C149.383 16.5313 149.208 16.6478 149.092 16.6478Z" fill="#3B713D"/>
<path d="M142.812 17.0552C142.812 17.0552 142.754 16.4149 142.986 15.7746C143.044 15.6582 143.103 15.5418 143.161 15.4836C143.451 15.0761 143.8 15.1925 143.684 15.7164C143.684 15.8328 143.626 15.9492 143.568 16.0657C143.335 16.6478 142.812 17.0552 142.812 17.0552Z" fill="#3B713D"/>
<path d="M146.359 9.77909C146.359 9.77909 146.301 9.1388 146.533 8.4985C146.591 8.38208 146.65 8.26566 146.708 8.20745C146.998 7.79999 147.347 7.91641 147.231 8.44029C147.231 8.55671 147.173 8.67312 147.115 8.78954C146.882 9.42984 146.359 9.77909 146.359 9.77909Z" fill="#3B713D"/>
<path d="M141.067 16.5895C141.067 16.5895 141.184 15.9492 141.649 15.4836C141.707 15.3672 141.823 15.3089 141.881 15.2507C142.288 14.9597 142.579 15.1925 142.288 15.6582C142.23 15.7746 142.172 15.8328 142.056 15.9492C141.707 16.3567 141.067 16.5895 141.067 16.5895Z" fill="#3B713D"/>
<path d="M151.767 17.8119C151.767 17.8119 151.825 17.1716 151.592 16.5313C151.534 16.4149 151.476 16.2985 151.418 16.2403C151.127 15.8328 150.778 15.9492 150.894 16.4731C150.894 16.5895 150.953 16.706 151.011 16.8224C151.301 17.4045 151.767 17.8119 151.767 17.8119Z" fill="#3B713D"/>
<path d="M153.22 16.8806C153.22 16.8806 153.104 16.2403 152.639 15.7746C152.581 15.6582 152.464 15.6 152.406 15.5418C151.999 15.2507 151.708 15.4836 151.999 15.9492C152.057 16.0657 152.116 16.1239 152.232 16.2403C152.581 16.706 153.22 16.8806 153.22 16.8806Z" fill="#3B713D"/>
<path d="M139.032 13.5045C139.032 13.5045 139.439 13.0388 140.021 12.7478C140.137 12.6896 140.253 12.6896 140.37 12.6313C140.835 12.5149 141.009 12.8642 140.602 13.1552C140.486 13.2134 140.428 13.2716 140.311 13.3299C139.672 13.6209 139.032 13.5045 139.032 13.5045Z" fill="#3B713D"/>
<path d="M133.973 38.8254C126.007 38.8254 119.553 32.4224 119.553 24.5642C119.553 16.7642 126.181 10.1866 133.973 10.1866C134.148 10.1866 134.264 10.303 134.264 10.4776C134.264 10.6522 134.148 10.7686 133.973 10.7686C126.472 10.7686 120.134 17.1134 120.134 24.5642C120.134 32.0731 126.356 38.2433 133.973 38.2433C141.533 38.2433 147.696 32.1313 147.696 24.5642C147.696 24.3895 147.813 24.2731 147.987 24.2731C148.161 24.2731 148.278 24.3895 148.278 24.5642C148.278 32.4224 141.823 38.8254 133.973 38.8254Z" fill="url(#paint0_linear)"/>
<defs>
<linearGradient id="paint0_linear" x1="119.512" y1="24.5163" x2="148.272" y2="24.5163" gradientUnits="userSpaceOnUse">
<stop offset="0.8167" stop-color="#6092A6"/>
<stop offset="0.9677" stop-color="#3B713D"/>
</linearGradient>
</defs>
</svg>
